<svg width="263" height="74" viewBox="0 0 263 74" fill="none" xmlns="http://www.w3.org/2000/svg">
<path d="M19.5685 23.6176H11.2195V45.0016H8.90955V23.6176H0.560547V21.5716H19.5685V23.6176Z" fill="#EBD69C"/>
<path d="M37.0701 45.0016H34.8261V35.3986C34.8261 33.4626 34.4851 32.0106 33.8032 31.0426C33.1211 30.0526 32.1421 29.5576 30.8661 29.5576C30.0301 29.5576 29.1941 29.7776 28.3581 30.2176C27.5441 30.6356 26.8181 31.2186 26.1801 31.9666C25.5641 32.6926 25.1241 33.5286 24.8601 34.4746V45.0016H22.6161V20.9116H24.8601V31.7026C25.5421 30.4266 26.4881 29.4146 27.6981 28.6666C28.9301 27.8966 30.2391 27.5116 31.6251 27.5116C32.6151 27.5116 33.4511 27.6876 34.1331 28.0396C34.8371 28.3916 35.3982 28.9086 35.8162 29.5906C36.2562 30.2506 36.5751 31.0316 36.7731 31.9336C36.9711 32.8136 37.0701 33.8146 37.0701 34.9366V45.0016Z" fill="#EBD69C"/>
<path d="M49.2804 45.3316C48.0484 45.3316 46.9044 45.1006 45.8484 44.6386C44.7924 44.1546 43.8794 43.5056 43.1094 42.6916C42.3394 41.8556 41.7344 40.8986 41.2944 39.8206C40.8764 38.7426 40.6674 37.5876 40.6674 36.3556C40.6674 34.7496 41.0304 33.2756 41.7564 31.9336C42.5044 30.5916 43.5274 29.5246 44.8254 28.7326C46.1234 27.9186 47.5974 27.5116 49.2474 27.5116C50.9414 27.5116 52.4154 27.9186 53.6694 28.7326C54.9454 29.5466 55.9464 30.6246 56.6724 31.9666C57.3984 33.2866 57.7614 34.7386 57.7614 36.3226C57.7614 36.4986 57.7614 36.6746 57.7614 36.8506C57.7614 37.0046 57.7504 37.1256 57.7284 37.2136H43.0104C43.1204 38.4456 43.4614 39.5456 44.0334 40.5136C44.6274 41.4596 45.3864 42.2186 46.3104 42.7906C47.2564 43.3406 48.2794 43.6156 49.3794 43.6156C50.5014 43.6156 51.5574 43.3296 52.5474 42.7576C53.5594 42.1856 54.2634 41.4376 54.6594 40.5136L56.6064 41.0416C56.2544 41.8556 55.7154 42.5926 54.9894 43.2526C54.2634 43.9126 53.4054 44.4296 52.4154 44.8036C51.4474 45.1556 50.4024 45.3316 49.2804 45.3316ZM42.9444 35.5966H55.6494C55.5614 34.3426 55.2204 33.2426 54.6264 32.2966C54.0544 31.3506 53.2954 30.6136 52.3494 30.0856C51.4254 29.5356 50.4024 29.2606 49.2804 29.2606C48.1584 29.2606 47.1354 29.5356 46.2114 30.0856C45.2874 30.6136 44.5284 31.3616 43.9344 32.3296C43.3624 33.2756 43.0324 34.3646 42.9444 35.5966Z" fill="#EBD69C"/>
<path d="M93.783 45.3316C92.551 45.3316 91.407 45.1006 90.351 44.6386C89.317 44.1546 88.415 43.5056 87.645 42.6916C86.897 41.8556 86.314 40.9096 85.896 39.8536C85.478 38.7756 85.269 37.6426 85.269 36.4546C85.269 35.2226 85.478 34.0786 85.896 33.0226C86.314 31.9446 86.908 30.9986 87.678 30.1846C88.448 29.3486 89.35 28.6996 90.384 28.2376C91.44 27.7536 92.584 27.5116 93.816 27.5116C95.048 27.5116 96.181 27.7536 97.215 28.2376C98.249 28.6996 99.151 29.3486 99.921 30.1846C100.691 30.9986 101.285 31.9446 101.703 33.0226C102.121 34.0786 102.33 35.2226 102.33 36.4546C102.33 37.6426 102.121 38.7756 101.703 39.8536C101.285 40.9096 100.691 41.8556 99.921 42.6916C99.173 43.5056 98.271 44.1546 97.215 44.6386C96.181 45.1006 95.037 45.3316 93.783 45.3316ZM87.546 36.4876C87.546 37.7636 87.821 38.9296 88.371 39.9856C88.943 41.0196 89.702 41.8446 90.648 42.4606C91.594 43.0546 92.639 43.3516 93.783 43.3516C94.927 43.3516 95.972 43.0436 96.918 42.4276C97.864 41.8116 98.623 40.9756 99.195 39.9196C99.767 38.8416 100.053 37.6756 100.053 36.4216C100.053 35.1456 99.767 33.9796 99.195 32.9236C98.623 31.8676 97.864 31.0316 96.918 30.4156C95.972 29.7996 94.927 29.4916 93.783 29.4916C92.639 29.4916 91.594 29.8106 90.648 30.4486C89.724 31.0866 88.976 31.9336 88.404 32.9896C87.832 34.0236 87.546 35.1896 87.546 36.4876Z" fill="#EBD69C"/>
<path d="M113.541 45.3316C112.287 45.3316 111.132 45.1006 110.076 44.6386C109.042 44.1546 108.129 43.4946 107.337 42.6586C106.567 41.8226 105.962 40.8656 105.522 39.7876C105.104 38.7096 104.895 37.5656 104.895 36.3556C104.895 34.7276 105.258 33.2426 105.984 31.9006C106.71 30.5586 107.722 29.4916 109.02 28.6996C110.318 27.9076 111.814 27.5116 113.508 27.5116C115.114 27.5116 116.533 27.8856 117.765 28.6336C118.997 29.3596 119.91 30.3496 120.504 31.6036L118.326 32.2966C117.842 31.4166 117.16 30.7346 116.28 30.2506C115.422 29.7446 114.465 29.4916 113.409 29.4916C112.265 29.4916 111.22 29.7886 110.274 30.3826C109.328 30.9766 108.569 31.7906 107.997 32.8246C107.447 33.8586 107.172 35.0356 107.172 36.3556C107.172 37.6536 107.458 38.8306 108.03 39.8866C108.602 40.9426 109.361 41.7896 110.307 42.4276C111.253 43.0436 112.298 43.3516 113.442 43.3516C114.19 43.3516 114.905 43.2196 115.587 42.9556C116.291 42.6916 116.896 42.3396 117.402 41.8996C117.93 41.4376 118.282 40.9426 118.458 40.4146L120.669 41.0746C120.361 41.8886 119.844 42.6256 119.118 43.2856C118.414 43.9236 117.578 44.4296 116.61 44.8036C115.664 45.1556 114.641 45.3316 113.541 45.3316Z" fill="#EBD69C"/>
<path d="M136.47 45.0016L130.101 36.1906L126.438 39.6226V45.0016H124.194V20.9116H126.438V37.2136L136.173 27.8416H138.648L131.619 34.8706L138.912 45.0016H136.47Z" fill="#EBD69C"/>
<path d="M149.943 44.1766C149.767 44.2426 149.492 44.3636 149.118 44.5396C148.744 44.7156 148.293 44.8696 147.765 45.0016C147.237 45.1336 146.665 45.1996 146.049 45.1996C145.411 45.1996 144.806 45.0786 144.234 44.8366C143.684 44.5946 143.244 44.2316 142.914 43.7476C142.584 43.2416 142.419 42.6256 142.419 41.8996V29.5906H140.043V27.8086H142.419V22.0006H144.663V27.8086H148.623V29.5906H144.663V41.2726C144.707 41.8886 144.927 42.3506 145.323 42.6586C145.741 42.9666 146.214 43.1206 146.742 43.1206C147.358 43.1206 147.919 43.0216 148.425 42.8236C148.931 42.6036 149.239 42.4496 149.349 42.3616L149.943 44.1766Z" fill="#EBD69C"/>
<path d="M151.361 40.0516C151.361 38.9736 151.669 38.0496 152.285 37.2796C152.901 36.4876 153.748 35.8826 154.826 35.4646C155.926 35.0246 157.191 34.8046 158.621 34.8046C159.457 34.8046 160.326 34.8706 161.228 35.0026C162.13 35.1346 162.933 35.3326 163.637 35.5966V34.1446C163.637 32.6926 163.208 31.5376 162.35 30.6796C161.492 29.8216 160.304 29.3926 158.786 29.3926C157.862 29.3926 156.949 29.5686 156.047 29.9206C155.167 30.2506 154.243 30.7456 153.275 31.4056L152.417 29.8216C153.539 29.0516 154.639 28.4796 155.717 28.1056C156.795 27.7096 157.895 27.5116 159.017 27.5116C161.129 27.5116 162.801 28.1166 164.033 29.3266C165.265 30.5366 165.881 32.2086 165.881 34.3426V42.2956C165.881 42.6036 165.947 42.8346 166.079 42.9886C166.211 43.1206 166.42 43.1976 166.706 43.2196V45.0016C166.464 45.0236 166.255 45.0456 166.079 45.0676C165.903 45.0896 165.771 45.0896 165.683 45.0676C165.133 45.0456 164.715 44.8696 164.429 44.5396C164.143 44.2096 163.989 43.8576 163.967 43.4836L163.934 42.2296C163.164 43.2196 162.163 43.9896 160.931 44.5396C159.699 45.0676 158.445 45.3316 157.169 45.3316C156.069 45.3316 155.068 45.1006 154.166 44.6386C153.286 44.1546 152.593 43.5166 152.087 42.7246C151.603 41.9106 151.361 41.0196 151.361 40.0516ZM162.878 41.3716C163.12 41.0636 163.307 40.7666 163.439 40.4806C163.571 40.1946 163.637 39.9416 163.637 39.7216V37.2136C162.889 36.9276 162.108 36.7076 161.294 36.5536C160.502 36.3996 159.699 36.3226 158.885 36.3226C157.279 36.3226 155.981 36.6416 154.991 37.2796C154.001 37.9176 153.506 38.7866 153.506 39.8866C153.506 40.5246 153.671 41.1296 154.001 41.7016C154.331 42.2516 154.815 42.7136 155.453 43.0876C156.091 43.4396 156.839 43.6156 157.697 43.6156C158.775 43.6156 159.776 43.4066 160.7 42.9886C161.646 42.5706 162.372 42.0316 162.878 41.3716Z" fill="#EBD69C"/>
<path d="M170.729 45.0016V27.8086H172.973V45.0016H170.729ZM170.729 24.2116V20.9116H172.973V24.2116H170.729Z" fill="#EBD69C"/>
<path d="M178.015 20.9116H180.259V41.1076C180.259 41.9656 180.413 42.5266 180.721 42.7906C181.029 43.0546 181.403 43.1866 181.843 43.1866C182.239 43.1866 182.635 43.1426 183.031 43.0546C183.427 42.9666 183.768 42.8786 184.054 42.7906L184.45 44.6056C184.032 44.7816 183.515 44.9246 182.899 45.0346C182.305 45.1446 181.788 45.1996 181.348 45.1996C180.336 45.1996 179.522 44.9026 178.906 44.3086C178.312 43.7146 178.015 42.9006 178.015 41.8666V20.9116Z" fill="#EBD69C"/>
<path d="M193.23 33.1216C193.23 31.6916 193.472 30.2946 193.956 28.9306C194.462 27.5446 195.188 26.2906 196.134 25.1686C197.08 24.0246 198.246 23.1226 199.632 22.4626C201.018 21.7806 202.591 21.4396 204.351 21.4396C206.441 21.4396 208.223 21.9236 209.697 22.8916C211.193 23.8376 212.293 25.0586 212.997 26.5546L211.182 27.6766C210.676 26.6426 210.038 25.8286 209.268 25.2346C208.498 24.6186 207.673 24.1786 206.793 23.9146C205.935 23.6506 205.077 23.5186 204.219 23.5186C202.811 23.5186 201.568 23.8046 200.49 24.3766C199.412 24.9266 198.499 25.6746 197.751 26.6206C197.025 27.5446 196.475 28.5896 196.101 29.7556C195.727 30.8996 195.54 32.0656 195.54 33.2536C195.54 34.5516 195.76 35.7946 196.2 36.9826C196.64 38.1706 197.256 39.2266 198.048 40.1506C198.84 41.0526 199.764 41.7786 200.82 42.3286C201.898 42.8566 203.064 43.1206 204.318 43.1206C205.198 43.1206 206.1 42.9666 207.024 42.6586C207.948 42.3506 208.806 41.8776 209.598 41.2396C210.412 40.6016 211.061 39.7766 211.545 38.7646L213.459 39.7546C212.975 40.9206 212.227 41.9106 211.215 42.7246C210.203 43.5386 209.07 44.1546 207.816 44.5726C206.584 44.9906 205.374 45.1996 204.186 45.1996C202.58 45.1996 201.106 44.8586 199.764 44.1766C198.422 43.4726 197.256 42.5486 196.266 41.4046C195.298 40.2386 194.55 38.9406 194.022 37.5106C193.494 36.0586 193.23 34.5956 193.23 33.1216Z" fill="#EBD69C"/>
<path d="M217.041 20.9116H219.285V41.1076C219.285 41.9656 219.439 42.5266 219.747 42.7906C220.055 43.0546 220.429 43.1866 220.869 43.1866C221.265 43.1866 221.661 43.1426 222.057 43.0546C222.453 42.9666 222.794 42.8786 223.08 42.7906L223.476 44.6056C223.058 44.7816 222.541 44.9246 221.925 45.0346C221.331 45.1446 220.814 45.1996 220.374 45.1996C219.362 45.1996 218.548 44.9026 217.932 44.3086C217.338 43.7146 217.041 42.9006 217.041 41.8666V20.9116Z" fill="#EBD69C"/>
<path d="M225.769 37.9066V27.8086H228.013V37.5106C228.013 39.4686 228.343 40.9316 229.003 41.8996C229.685 42.8676 230.686 43.3516 232.006 43.3516C232.886 43.3516 233.733 43.1646 234.547 42.7906C235.383 42.3946 236.12 41.8446 236.758 41.1406C237.396 40.4146 237.88 39.5786 238.21 38.6326V27.8086H240.454V42.2956C240.454 42.6036 240.52 42.8346 240.652 42.9886C240.784 43.1206 240.982 43.1976 241.246 43.2196V45.0016C240.982 45.0236 240.773 45.0346 240.619 45.0346C240.465 45.0566 240.322 45.0676 240.19 45.0676C239.75 45.0236 239.365 44.8476 239.035 44.5396C238.727 44.2316 238.562 43.8576 238.54 43.4176L238.474 41.1076C237.726 42.4276 236.703 43.4616 235.405 44.2096C234.129 44.9576 232.743 45.3316 231.247 45.3316C229.443 45.3316 228.079 44.7046 227.155 43.4506C226.231 42.1966 225.769 40.3486 225.769 37.9066Z" fill="#EBD69C"/>
<path d="M253.942 45.3316C252.6 45.3316 251.357 44.9906 250.213 44.3086C249.069 43.6046 248.178 42.7246 247.54 41.6686V45.0016H245.527V20.9116H247.771V31.4056C248.541 30.2396 249.465 29.3046 250.543 28.6006C251.621 27.8746 252.875 27.5116 254.305 27.5116C255.515 27.5116 256.593 27.7646 257.539 28.2706C258.507 28.7766 259.332 29.4586 260.014 30.3166C260.696 31.1526 261.213 32.1096 261.565 33.1876C261.917 34.2436 262.093 35.3326 262.093 36.4546C262.093 37.6646 261.884 38.7976 261.466 39.8536C261.07 40.9096 260.498 41.8556 259.75 42.6916C259.002 43.5056 258.133 44.1546 257.143 44.6386C256.175 45.1006 255.108 45.3316 253.942 45.3316ZM253.414 43.3516C254.338 43.3516 255.196 43.1646 255.988 42.7906C256.78 42.4166 257.462 41.8996 258.034 41.2396C258.606 40.5796 259.046 39.8426 259.354 39.0286C259.662 38.1926 259.816 37.3346 259.816 36.4546C259.816 35.2446 259.552 34.1116 259.024 33.0556C258.518 31.9776 257.803 31.1196 256.879 30.4816C255.977 29.8216 254.91 29.4916 253.678 29.4916C252.798 29.4916 251.973 29.6896 251.203 30.0856C250.455 30.4816 249.784 31.0096 249.19 31.6696C248.618 32.3076 248.145 33.0116 247.771 33.7816V39.1276C247.859 39.7216 248.09 40.2826 248.464 40.8106C248.838 41.3166 249.3 41.7566 249.85 42.1306C250.422 42.5046 251.016 42.8016 251.632 43.0216C252.248 43.2416 252.842 43.3516 253.414 43.3516Z" fill="#EBD69C"/>
<path d="M143.7 36.9016C143.7 48.3682 140.6 57.3349 134.4 63.8016C128.266 70.2016 119.566 73.4016 108.3 73.4016C100.7 73.4016 93.8329 71.8016 87.6995 68.6016C81.6329 65.4016 76.8996 61.0349 73.4995 55.5016C70.1662 49.9682 68.4995 43.8016 68.4995 37.0016C68.4995 30.1349 70.1662 23.9349 73.4995 18.4016C76.8329 12.8682 81.4329 8.5349 87.2995 5.40157C93.1662 2.20156 99.6996 0.601562 106.9 0.601562C111.433 0.601562 116.033 1.2349 120.7 2.50156C125.433 3.70156 129.366 5.3349 132.5 7.40156L134.5 21.5016H133.6C132.2 15.9016 128.966 11.5349 123.9 8.40156C118.833 5.20157 113.2 3.60157 107 3.60157C98.1329 3.60157 90.7329 6.76823 84.7995 13.1016C78.9329 19.3682 75.9995 27.2682 75.9995 36.8016C75.9995 46.3349 79.0329 54.3349 85.0995 60.8016C91.2329 67.2016 99.2329 70.4016 109.1 70.4016C118.966 70.4016 127 67.2016 133.2 60.8016C139.466 54.4016 142.6 45.6349 142.6 34.5016H143.6C143.666 35.3016 143.7 36.1016 143.7 36.9016Z" fill="#EBD69C"/>
</svg>
